<svg width="93" height="16" viewBox="0 0 93 16" fill="none" xmlns="http://www.w3.org/2000/svg">
<g clip-path="url(#clip0_2507_455)">
<path d="M9.12055 0.887283L10.8085 4.46356C10.9258 4.71229 11.1528 4.88464 11.4153 4.92446L15.1898 5.49799C15.851 5.59852 16.1148 6.44787 15.6365 6.93522L12.9053 9.71894C12.7155 9.91251 12.6287 10.1916 12.6737 10.4648L13.3183 14.3956C13.4313 15.084 12.7402 15.6089 12.1489 15.2841L8.7731 13.4284C8.53835 13.2995 8.25771 13.2995 8.02295 13.4284L4.64712 15.2841C4.05586 15.6092 3.36471 15.084 3.47772 14.3956L4.12235 10.4648C4.16731 10.1916 4.08052 9.91251 3.89072 9.71894L1.15952 6.93522C0.681276 6.44755 0.945062 5.5982 1.60624 5.49799L5.38072 4.92446C5.64326 4.88464 5.87021 4.71229 5.98759 4.46356L7.6755 0.887283C7.97082 0.26088 8.82492 0.26088 9.12055 0.887283Z" fill="#FFB300"/>
</g>
<g clip-path="url(#clip1_2507_455)">
<path d="M28.2431 0.887283L29.931 4.46356C30.0484 4.71229 30.2754 4.88464 30.5379 4.92446L34.3124 5.49799C34.9736 5.59852 35.2373 6.44787 34.7591 6.93522L32.0279 9.71894C31.8381 9.91251 31.7513 10.1916 31.7963 10.4648L32.4409 14.3956C32.5539 15.084 31.8628 15.6089 31.2715 15.2841L27.8957 13.4284C27.6609 13.2995 27.3803 13.2995 27.1455 13.4284L23.7697 15.2841C23.1784 15.6092 22.4873 15.084 22.6003 14.3956L23.2449 10.4648C23.2899 10.1916 23.2031 9.91251 23.0133 9.71894L20.2821 6.93522C19.8038 6.44755 20.0676 5.5982 20.7288 5.49799L24.5033 4.92446C24.7658 4.88464 24.9928 4.71229 25.1101 4.46356L26.7981 0.887283C27.0934 0.26088 27.9475 0.26088 28.2431 0.887283Z" fill="#FFB300"/>
</g>
<g clip-path="url(#clip2_2507_455)">
<path d="M47.3659 0.887283L49.0538 4.46356C49.1712 4.71229 49.3982 4.88464 49.6607 4.92446L53.4352 5.49799C54.0964 5.59852 54.3601 6.44787 53.8819 6.93522L51.1507 9.71894C50.9609 9.91251 50.8741 10.1916 50.9191 10.4648L51.5637 14.3956C51.6767 15.084 50.9856 15.6089 50.3943 15.2841L47.0185 13.4284C46.7837 13.2995 46.5031 13.2995 46.2683 13.4284L42.8925 15.2841C42.3012 15.6092 41.6101 15.084 41.7231 14.3956L42.3677 10.4648C42.4127 10.1916 42.3259 9.91251 42.1361 9.71894L39.4049 6.93522C38.9266 6.44755 39.1904 5.5982 39.8516 5.49799L43.6261 4.92446C43.8886 4.88464 44.1156 4.71229 44.2329 4.46356L45.9209 0.887283C46.2162 0.26088 47.0703 0.26088 47.3659 0.887283Z" fill="#FFB300"/>
</g>
<g clip-path="url(#clip3_2507_455)">
<path d="M66.4885 0.887283L68.1764 4.46356C68.2938 4.71229 68.5207 4.88464 68.7833 4.92446L72.5577 5.49799C73.2189 5.59852 73.4827 6.44787 73.0045 6.93522L70.2733 9.71894C70.0835 9.91251 69.9967 10.1916 70.0416 10.4648L70.6863 14.3956C70.7993 15.084 70.1081 15.6089 69.5169 15.2841L66.141 13.4284C65.9063 13.2995 65.6256 13.2995 65.3909 13.4284L62.015 15.2841C61.4238 15.6092 60.7326 15.084 60.8456 14.3956L61.4903 10.4648C61.5352 10.1916 61.4484 9.91251 61.2586 9.71894L58.5274 6.93522C58.0492 6.44755 58.313 5.5982 58.9742 5.49799L62.7486 4.92446C63.0112 4.88464 63.2381 4.71229 63.3555 4.46356L65.0434 0.887283C65.3387 0.26088 66.1928 0.26088 66.4885 0.887283Z" fill="#FFB300"/>
</g>
<g clip-path="url(#clip4_2507_455)">
<path d="M85.6113 0.887283L87.2992 4.46356C87.4166 4.71229 87.6435 4.88464 87.9061 4.92446L91.6805 5.49799C92.3417 5.59852 92.6055 6.44787 92.1273 6.93522L89.3961 9.71894C89.2063 9.91251 89.1195 10.1916 89.1644 10.4648L89.8091 14.3956C89.9221 15.084 89.2309 15.6089 88.6397 15.2841L85.2638 13.4284C85.0291 13.2995 84.7484 13.2995 84.5137 13.4284L81.1378 15.2841C80.5466 15.6092 79.8554 15.084 79.9684 14.3956L80.6131 10.4648C80.658 10.1916 80.5712 9.91251 80.3814 9.71894L77.6502 6.93522C77.172 6.44755 77.4358 5.5982 78.097 5.49799L81.8714 4.92446C82.134 4.88464 82.3609 4.71229 82.4783 4.46356L84.1662 0.887283C84.4615 0.26088 85.3156 0.26088 85.6113 0.887283Z" fill="#FFB300"/>
</g>
<defs>
<clipPath id="clip0_2507_455">
<rect width="14.9656" height="15.6486" fill="white" transform="translate(0.915039 0.0756836)"/>
</clipPath>
<clipPath id="clip1_2507_455">
<rect width="14.9656" height="15.6486" fill="white" transform="translate(20.0376 0.0756836)"/>
</clipPath>
<clipPath id="clip2_2507_455">
<rect width="14.9656" height="15.6486" fill="white" transform="translate(39.1604 0.0756836)"/>
</clipPath>
<clipPath id="clip3_2507_455">
<rect width="14.9656" height="15.6486" fill="white" transform="translate(58.283 0.0756836)"/>
</clipPath>
<clipPath id="clip4_2507_455">
<rect width="14.9656" height="15.6486" fill="white" transform="translate(77.4058 0.0756836)"/>
</clipPath>
</defs>
</svg>
